HIERARCHY
ROOT Hips
{
  OFFSET 0.0000 0.0000 0.0000
  CHANNELS 6 Xposition Yposition Zposition Zrotation Xrotation Yrotation
  JOINT LeftHip
  {
    OFFSET 5.5000 -0.0000 0.0000
    CHANNELS 3 Zrotation Xrotation Yrotation
    JOINT LeftKnee
    {
      OFFSET -0.0000 -16.5000 0.0000
      CHANNELS 3 Zrotation Xrotation Yrotation
      JOINT LeftAnkle
      {
        OFFSET 0.0000 -17.0000 -0.0000
        CHANNELS 3 Zrotation Xrotation Yrotation
        End Site
        {
            OFFSET 0.0000 -4.0000 -2.0000
        }
      }
    }
  }
  JOINT RightHip
  {
    OFFSET -5.5000 0.0000 -0.0000
    CHANNELS 3 Zrotation Xrotation Yrotation
    JOINT RightKnee
    {
      OFFSET 0.0000 -16.5000 0.0000
      CHANNELS 3 Zrotation Xrotation Yrotation
      JOINT RightAnkle
      {
        OFFSET 0.0000 -17.0000 0.0000
        CHANNELS 3 Zrotation Xrotation Yrotation
        End Site
        {
            OFFSET 0.0000 -4.0000 -2.0000
        }
      }
    }
  }
  JOINT Chest
  {
    OFFSET 0.0000 3.0000 -1.0000
    CHANNELS 3 Zrotation Xrotation Yrotation
    JOINT LeftCollar
    {
      OFFSET 0.0000 18.0000 1.0000
      CHANNELS 3 Zrotation Xrotation Yrotation
      JOINT LeftShoulder
      {
        OFFSET 6.5000 0.0000 -0.0000
        CHANNELS 3 Zrotation Xrotation Yrotation
        JOINT LeftElbow
        {
          OFFSET -0.0000 -11.0000 0.0000
          CHANNELS 3 Zrotation Xrotation Yrotation
          JOINT LeftWrist
          {
            OFFSET 0.0000 -10.5000 0.0000
            CHANNELS 3 Zrotation Xrotation Yrotation
            End Site
            {
                OFFSET 0.0000 -6.0000 0.0000
            }
          }
        }
      }
    }
    JOINT RightCollar
    {
      OFFSET 0.0000 18.0000 1.0000
      CHANNELS 3 Zrotation Xrotation Yrotation
      JOINT RightShoulder
      {
        OFFSET -6.5000 -0.0000 0.0000
        CHANNELS 3 Zrotation Xrotation Yrotation
        JOINT RightElbow
        {
          OFFSET 0.0000 -11.0000 0.0000
          CHANNELS 3 Zrotation Xrotation Yrotation
          JOINT RightWrist
          {
            OFFSET 0.0000 -10.5000 0.0000
            CHANNELS 3 Zrotation Xrotation Yrotation
            End Site
            {
                OFFSET -0.0000 -6.0000 0.0000
            }
          }
        }
      }
    }
    JOINT Neck
    {
      OFFSET 0.0000 18.0000 1.0000
      CHANNELS 3 Zrotation Xrotation Yrotation
      JOINT Head
      {
        OFFSET 0.0000 3.0000 0.0000
        CHANNELS 3 Zrotation Xrotation Yrotation
        End Site
        {
            OFFSET 0.0000 7.0000 0.0000
        }
      }
    }
  }
}
MOTION
Frames:	18
Frame Time:	0.041667
-0.3864 37.5208 0.7594 -0.33 2.63 -3.50 -2.73 -1.99 -0.96 5.00 6.11 0.00 -0.64 -1.95 0.30 5.64 -2.42 1.07 -5.00 5.89 0.00 -1.13 -2.36 -0.76 -0.81 -2.16 -0.35 0.32 -0.16 0.00 5.55 0.46 -6.62 -4.00 -11.36 0.00 -0.33 1.06 3.63 0.32 -0.16 0.00 -5.96 0.62 6.00 4.00 -11.63 0.00 6.60 0.79 0.40 -1.28 2.06 0.00 3.91 -8.92 1.46 
-0.3790 37.5224 0.7483 -0.34 2.62 -3.60 -2.73 -1.99 -0.96 5.00 6.11 0.00 -0.64 -1.95 0.30 5.64 -2.42 1.07 -5.00 5.89 0.00 -1.13 -2.36 -0.76 -0.81 -2.16 -0.35 0.32 -0.16 0.00 5.55 0.46 -6.62 -4.00 -11.36 0.00 -0.33 1.06 3.63 0.32 -0.16 0.00 -5.96 0.62 6.00 4.00 -11.63 0.00 6.60 0.79 0.40 -1.28 2.06 0.00 3.75 -8.93 1.43 
-0.3729 37.5237 0.7391 -0.34 2.62 -3.69 -2.73 -1.99 -0.96 5.00 6.11 0.00 -0.64 -1.95 0.30 5.64 -2.42 1.07 -5.00 5.89 0.00 -1.13 -2.36 -0.76 -0.81 -2.16 -0.35 0.32 -0.16 0.00 5.55 0.46 -6.62 -4.00 -11.36 0.00 -0.33 1.06 3.63 0.32 -0.16 0.00 -5.96 0.62 6.00 4.00 -11.63 0.00 6.60 0.79 0.40 -1.28 2.06 0.00 3.58 -8.93 1.41 
-0.3673 37.5217 0.7307 -0.35 2.62 -3.78 -2.73 -1.99 -0.96 5.00 6.11 0.00 -0.64 -1.95 0.30 5.64 -2.58 1.07 -5.00 5.89 0.00 -1.13 -2.36 -0.76 -0.81 -2.16 -0.35 0.32 -0.16 0.00 5.55 0.46 -6.62 -4.00 -11.36 0.00 -0.49 1.05 3.63 0.32 -0.16 0.00 -5.96 0.62 6.00 4.00 -11.63 0.00 6.60 0.79 0.40 -1.39 2.06 0.00 4.01 -8.93 1.29 
-0.3669 37.5148 0.7871 -0.35 2.62 -3.86 -2.73 -1.99 -0.96 5.00 6.29 0.00 -0.64 -1.95 0.30 5.80 -2.58 1.08 -5.00 5.89 0.00 -1.13 -2.36 -0.76 -0.81 -2.16 -0.35 0.32 -0.16 0.00 5.55 0.46 -6.62 -4.00 -11.36 0.00 -0.49 1.05 3.63 0.32 -0.16 0.00 -5.96 0.62 6.00 4.00 -11.63 0.00 6.60 0.79 0.40 -1.44 2.06 0.00 4.23 -8.92 1.32 
-0.3614 37.5166 0.7787 -0.36 2.62 -3.94 -2.73 -1.99 -0.96 5.00 6.29 0.00 -0.64 -1.95 0.30 5.80 -2.58 1.08 -5.00 5.92 0.00 -1.13 -2.39 -0.60 -0.81 -2.16 -0.35 0.32 -0.16 0.00 5.55 0.46 -6.62 -4.00 -11.36 0.00 -0.49 1.05 3.63 0.32 -0.16 0.00 -5.96 0.62 6.00 4.00 -11.63 0.00 6.60 0.79 0.40 -1.44 2.06 0.00 4.23 -8.92 1.32 
-0.3579 37.5174 0.7734 -0.36 2.62 -4.00 -2.73 -1.99 -0.96 5.00 6.29 0.00 -0.64 -1.95 0.30 5.80 -2.58 1.08 -5.00 5.92 0.00 -1.13 -2.39 -0.60 -0.81 -2.16 -0.35 0.32 -0.16 0.00 5.55 0.46 -6.62 -4.00 -11.36 0.00 -0.49 1.05 3.63 0.32 -0.16 0.00 -5.96 0.62 6.00 4.00 -11.63 0.00 6.60 0.79 0.40 -1.33 2.06 0.00 3.80 -8.93 1.27 
-0.3576 37.5175 0.7731 -0.36 2.62 -4.00 -2.73 -1.99 -0.96 5.00 6.29 0.00 -0.64 -1.95 0.30 5.80 -2.58 1.08 -5.00 5.92 0.00 -1.13 -2.39 -0.60 -0.81 -2.32 -0.35 0.32 -0.16 0.00 5.55 0.46 -6.62 -4.00 -11.36 0.00 -0.49 1.05 3.63 0.32 -0.16 0.00 -5.96 0.62 6.00 4.00 -11.63 0.00 6.60 0.79 0.40 -1.28 2.06 0.00 3.74 -8.92 1.27 
-0.3544 37.5182 0.7683 -0.37 2.62 -4.05 -2.73 -1.99 -0.96 5.00 6.29 0.00 -0.64 -1.95 0.30 5.80 -2.58 1.08 -5.00 5.92 0.00 -1.13 -2.39 -0.60 -0.81 -2.32 -0.35 0.32 -0.16 0.00 5.55 0.46 -6.62 -4.00 -11.36 0.00 -0.49 1.05 3.63 0.32 -0.16 0.00 -5.96 0.62 6.00 4.00 -11.63 0.00 6.60 0.79 0.40 -1.28 2.06 0.00 3.74 -8.92 1.27 
-0.3543 37.5185 0.7681 -0.37 2.62 -4.05 -2.73 -1.99 -0.96 5.00 6.29 0.00 -0.64 -1.95 0.30 5.80 -2.58 1.08 -5.00 5.91 0.00 -1.13 -2.22 -0.60 -0.81 -2.32 -0.35 0.32 -0.16 0.00 5.55 0.46 -6.62 -4.00 -11.36 0.00 -0.49 1.05 3.63 0.32 -0.16 0.00 -5.96 0.62 6.00 4.00 -11.63 0.00 6.60 0.79 0.40 -1.28 2.06 0.00 3.74 -8.92 1.27 
-0.3531 37.5223 0.7497 -0.37 2.59 -4.05 -2.73 -1.99 -0.96 5.00 6.29 0.00 -0.64 -1.95 0.30 5.80 -2.42 1.08 -5.00 5.91 0.00 -1.13 -2.22 -0.60 -0.81 -2.32 -0.35 0.32 -0.16 0.00 5.55 0.46 -6.62 -4.00 -11.36 0.00 -0.49 1.05 3.63 0.32 -0.16 0.00 -5.96 0.62 6.00 4.00 -11.63 0.00 6.60 0.79 0.40 -1.28 2.06 0.00 3.74 -8.92 1.27 
-0.3522 37.5204 0.7361 -0.37 2.57 -4.05 -2.73 -1.99 -0.96 5.00 6.29 0.00 -0.64 -1.95 0.30 5.80 -2.42 1.08 -5.00 5.73 0.00 -1.13 -2.22 -0.60 -0.65 -2.32 -0.34 0.32 -0.16 0.00 5.55 0.46 -6.62 -4.00 -11.36 0.00 -0.49 1.05 3.63 0.32 -0.16 0.00 -5.96 0.62 6.00 4.00 -11.63 0.00 6.60 0.79 0.40 -1.28 2.06 0.00 3.74 -8.92 1.27 
-0.3522 37.5204 0.7361 -0.37 2.57 -4.05 -2.73 -1.99 -0.96 5.00 6.29 0.00 -0.64 -1.95 0.30 5.80 -2.42 1.08 -5.00 5.73 0.00 -1.13 -2.22 -0.60 -0.65 -2.32 -0.34 0.32 -0.16 0.00 5.55 0.46 -6.62 -4.00 -11.36 0.00 -0.49 1.05 3.63 0.32 -0.16 0.00 -5.96 0.62 6.00 4.00 -11.63 0.00 6.60 0.79 0.40 -1.28 2.06 0.00 3.74 -8.92 1.27 
-0.3530 37.5251 0.7446 -0.37 2.57 -4.05 -2.73 -1.99 -0.96 5.00 6.28 0.00 -0.65 -1.78 0.30 5.80 -2.42 1.08 -5.00 5.73 0.00 -1.13 -2.22 -0.60 -0.65 -2.32 -0.34 0.32 -0.16 0.00 5.55 0.46 -6.62 -4.00 -11.36 0.00 -0.49 1.05 3.63 0.32 -0.16 0.00 -5.96 0.62 6.00 4.00 -11.63 0.00 6.60 0.79 0.40 -1.28 2.06 0.00 3.74 -8.92 1.27 
-0.2479 37.5270 0.7536 -0.37 2.57 -4.05 -2.89 -1.99 -0.96 5.00 6.28 0.00 -0.65 -1.78 0.30 5.80 -2.42 1.08 -5.00 5.73 0.00 -1.13 -2.22 -0.60 -0.65 -2.32 -0.34 0.32 -0.16 0.00 5.55 0.46 -6.62 -4.00 -11.36 0.00 -0.49 1.05 3.63 0.32 -0.16 0.00 -5.96 0.62 6.00 4.00 -11.63 0.00 6.60 0.79 0.40 -1.28 2.06 0.00 3.74 -8.92 1.27 
-0.2479 37.5270 0.7536 -0.37 2.57 -4.05 -2.89 -1.99 -0.96 5.00 6.28 0.00 -0.65 -1.78 0.30 5.80 -2.42 1.08 -5.00 5.73 0.00 -1.13 -2.22 -0.60 -0.65 -2.32 -0.34 0.32 -0.16 0.00 5.55 0.46 -6.62 -4.00 -11.36 0.00 -0.49 1.05 3.63 0.32 -0.16 0.00 -5.96 0.62 6.00 4.00 -11.63 0.00 6.60 0.79 0.40 -1.33 2.06 0.00 3.96 -8.92 1.29 
-0.2486 37.5343 0.7621 -0.37 2.57 -4.05 -2.89 -1.99 -0.96 5.00 6.27 0.00 -0.65 -1.61 0.30 5.64 -2.42 1.07 -5.00 5.56 0.00 -1.13 -2.22 -0.60 -0.65 -2.32 -0.34 0.32 -0.16 0.00 5.55 0.46 -6.62 -4.00 -11.36 0.00 -0.49 1.05 3.63 0.32 -0.16 0.00 -6.15 0.60 6.00 4.00 -11.63 0.00 6.60 0.79 0.40 -1.47 2.06 0.00 4.34 -8.93 1.49 
-0.2543 37.5366 0.6964 -0.37 2.57 -4.05 -2.89 -1.99 -0.96 5.00 6.09 0.00 -0.49 -1.61 0.31 5.64 -2.42 1.07 -5.00 5.51 0.00 -1.13 -2.02 -0.76 -0.65 -2.48 -0.34 0.32 -0.16 0.00 5.55 0.46 -6.83 -4.00 -11.36 0.00 -0.49 1.05 3.63 0.32 -0.16 0.00 -6.15 0.60 6.00 4.00 -11.63 0.00 6.60 0.79 0.40 -1.52 2.06 0.00 4.56 -8.93 1.52 
